<svg width="23" height="19" viewBox="0 0 23 19" fill="none" xmlns="http://www.w3.org/2000/svg">
<path d="M2.16651 10.8333L17.9798 10.8333L13.1398 16.6466C12.6686 17.2136 12.7462 18.0553 13.3132 18.5266C13.8802 18.9979 14.7219 18.9203 15.1932 18.3533L21.8598 10.3533C21.9047 10.2896 21.9448 10.2228 21.9798 10.1533C21.9798 10.0866 21.9798 10.0466 22.0732 9.97993C22.1336 9.82705 22.1652 9.66431 22.1665 9.49993C22.1652 9.33554 22.1336 9.1728 22.0732 9.01993C22.0732 8.95326 22.0732 8.91326 21.9798 8.84659C21.9448 8.77707 21.9047 8.71023 21.8598 8.64659L15.1932 0.646591C14.9394 0.341871 14.5631 0.165949 14.1665 0.166592C13.855 0.165983 13.5531 0.274485 13.3132 0.473259C13.0405 0.699324 12.869 1.02459 12.8365 1.3773C12.8039 1.73 12.9131 2.08115 13.1398 2.35326L17.9798 8.16659L2.16651 8.16659C1.43013 8.16659 0.833172 8.76355 0.833172 9.49993C0.833172 10.2363 1.43013 10.8333 2.16651 10.8333Z" fill="#03c04a"/>
</svg>
