<svg width="14" height="14" viewBox="0 0 14 14" fill="none" xmlns="http://www.w3.org/2000/svg">
<path d="M10.6664 8.33348C10.2678 9.72023 9.09421 10.7452 7.66643 10.9535C6.56185 11.1137 5.43969 10.8167 4.559 10.1311C3.67831 9.44538 3.11524 8.4303 2.99976 7.32015C2.91026 6.20502 3.29183 5.10337 4.05189 4.2825C4.81196 3.46163 5.88105 2.99656 6.99976 3.00015C7.51826 3.00088 8.03187 3.10043 8.51309 3.29348C8.67013 3.36398 8.85502 3.30332 8.93976 3.15348L9.89976 1.38682C9.94149 1.30463 9.94878 1.20921 9.92001 1.12164C9.89124 1.03407 9.82877 0.961565 9.74643 0.920149C7.65075 -0.0286774 5.21397 0.169989 3.29966 1.44574C1.38535 2.7215 0.264033 4.89406 0.333093 7.19348C0.469243 10.675 3.23397 13.4801 6.71309 13.6668C10.3739 13.8292 13.4795 11.0064 13.6664 7.34682V6.01348C13.6629 5.83088 13.5157 5.6837 13.3331 5.68015H7.33309C7.149 5.68015 6.99976 5.82939 6.99976 6.01348V8.01348C6.99976 8.19758 7.149 8.34682 7.33309 8.34682H10.6664" fill="#03c04a"/>
</svg>
