<svg width="20" height="21" viewBox="0 0 20 21" fill="none" xmlns="http://www.w3.org/2000/svg">
<path d="M15.56 20C15.4001 20.0006 15.2423 19.9629 15.1 19.89L10 17.22L4.9 19.89C4.56214 20.0676 4.1526 20.0374 3.84443 19.8122C3.53626 19.5869 3.38323 19.2058 3.45 18.83L4.45 13.2L0.330002 9.19996C0.0680582 8.93856 -0.0281137 8.55387 0.0800019 8.19996C0.198246 7.83738 0.512425 7.57363 0.890002 7.51996L6.59 6.68996L9.1 1.55996C9.26709 1.21497 9.61668 0.99585 10 0.99585C10.3833 0.99585 10.7329 1.21497 10.9 1.55996L13.44 6.67996L19.14 7.50996C19.5176 7.56363 19.8318 7.82738 19.95 8.18996C20.0581 8.54387 19.9619 8.92856 19.7 9.18996L15.58 13.19L16.58 18.82C16.6529 19.2028 16.4968 19.593 16.18 19.82C15.9989 19.9469 15.7809 20.0102 15.56 20Z" fill="#03c04a"/>
</svg>
