<?xml version="1.0" encoding="utf-8"?>
<!-- Designed by Vexels.com - 2020 All Rights Reserved - https://vexels.com/terms-and-conditions/  -->
<svg version="1.1" id="Capa_1" xmlns="http://www.w3.org/2000/svg" xmlns:xlink="http://www.w3.org/1999/xlink" x="0px" y="0px"
	 viewBox="0 0 1200 1200" enable-background="new 0 0 1200 1200" xml:space="preserve">
<path fill="#03c04a" d="M1062.462,207.958c-15.794-21.215-34.617-38.489-55.444-50.78
	c-96.726-57.08-297.035-101.926-407.019,165.924c-91.063-175.198-191.11-220.07-311.716-201.53
	c-88.72,13.638-165.166,84.326-207.916,184.274c-182.834,427.464,519.655,780.017,519.668,780.375
	C600.036,1086.22,1412.434,678.058,1062.462,207.958z M882.398,384.915c-8.38,26.355-17.593,52.276-27.68,77.741
	c-20.075,50.98-43.185,100.375-67.704,149.035c-24.498,48.671-51.236,96.172-78.665,143.311
	c-27.258,47.23-54.552,94.44-80.533,142.336c-8.058,14.853-26.631,20.363-41.486,12.305c-4.567-2.478-8.251-5.951-10.929-10.003
	l-1.683-2.578c-26.502-40.434-49.842-82.479-72.576-124.833c-22.521-42.462-43.876-85.518-64.318-129.039
	c-10.261-21.74-20.144-43.672-30.009-65.614c-9.683-22.034-18.897-44.309-27.434-66.926c-8.46-22.657-16.266-45.648-23.195-69.086
	c-6.829-23.488-13.062-47.28-17.081-72.198c17.792,17.904,33.37,36.936,48.353,56.271c14.882,19.386,28.887,39.22,42.239,59.387
	c13.273,20.205,25.871,40.756,37.999,61.545c11.946,20.882,23.873,41.773,35.423,62.857c23.181,42.126,45.447,84.717,66.549,127.902
	c11.498,23.831,22.79,47.767,33.494,72.003c13.992-29.113,27.751-58.348,41.488-87.594c23.01-49.447,46.713-98.533,72.655-146.45
	c25.922-47.927,53.251-95.119,83.616-140.725c15.134-22.829,31.141-45.202,47.98-67.14c17.011-21.849,34.581-43.406,54.58-63.693
	C898.258,331.734,890.608,358.47,882.398,384.915z"/>
</svg>
