<svg width="14" height="13" viewBox="0 0 14 13" fill="none" xmlns="http://www.w3.org/2000/svg">
<path d="M4.06023 12.0001C6.30079 12.0751 8.47643 11.2408 10.0924 9.68695C11.7084 8.13314 12.6273 5.99187 12.6402 3.7501C13.1485 3.12115 13.5259 2.39697 13.7502 1.6201C13.7844 1.49472 13.7419 1.36093 13.6415 1.27837C13.5411 1.19581 13.4017 1.17984 13.2852 1.2376C12.74 1.50004 12.0881 1.38536 11.6652 0.952596C11.1333 0.370095 10.3882 0.0278175 9.5997 0.00379612C8.81123 -0.0202253 8.04664 0.276057 7.48023 0.825096C6.69945 1.58124 6.37213 2.6913 6.61773 3.7501C4.10523 3.9001 2.38023 2.7076 1.00023 1.0726C0.915518 0.976662 0.782093 0.939898 0.6602 0.978904C0.538306 1.01791 0.451011 1.1253 0.437731 1.2526C-0.100682 4.23922 1.27538 7.24561 3.88773 8.7901C3.03246 9.77096 1.83139 10.3836 0.535231 10.5001C0.392866 10.5237 0.281263 10.6352 0.257539 10.7776C0.233814 10.9199 0.303218 11.0616 0.430231 11.1301C1.55787 11.6936 2.79965 11.9912 4.06023 12.0001Z" fill="#03c04a"/>
</svg>
